<?xml version="1.0" encoding="UTF-8"?>
<svg version="1.1" xmlns="http://www.w3.org/2000/svg" width="681" height="656">
<path d="M0 0 C224.73 0 449.46 0 681 0 C681 216.48 681 432.96 681 656 C456.27 656 231.54 656 0 656 C0 439.52 0 223.04 0 0 Z " fill="#FEFEFE" transform="translate(0,0)"/>
<path d="M0 0 C9.64201312 6.82902214 14.69565998 16.97719913 20.125 27.1875 C21.27567669 29.3322271 22.42672613 31.47675426 23.578125 33.62109375 C24.43954102 35.22960205 24.43954102 35.22960205 25.31835938 36.87060547 C27.81194442 41.51096162 30.34385095 46.13006359 32.875 50.75 C36.27191941 56.96016384 39.64155049 63.18427727 42.98046875 69.42578125 C43.48915497 70.37664108 43.48915497 70.37664108 44.00811768 71.34671021 C45.67881715 74.47110614 47.34730394 77.5966645 49.01318359 80.72363281 C49.61855957 81.85768555 50.22393555 82.99173828 50.84765625 84.16015625 C51.6521521 85.67041382 51.6521521 85.67041382 52.47290039 87.21118164 C53.49754811 89.08241281 54.57369434 90.9262799 55.69702148 92.73999023 C57 95 57 95 57 97 C57.66 97 58.32 97 59 97 C59.20882812 96.236875 59.41765625 95.47375 59.6328125 94.6875 C61.55205391 89.51103173 64.21169413 84.82731413 66.875 80 C67.45580322 78.93765137 68.03660645 77.87530273 68.63500977 76.78076172 C70.41931934 73.51828717 72.20961779 70.25914485 74 67 C75.49891512 64.25942172 76.99568125 61.51768444 78.49145508 58.77539062 C79.46011405 56.99997921 80.43001554 55.22524518 81.40112305 53.45117188 C84.14688069 48.42860914 86.86176094 43.391209 89.546875 38.3359375 C109.55553314 0.71171898 109.55553314 0.71171898 123.3125 -3.75 C133.83756774 -4.72907607 141.97160299 -3.59695977 150.375 3.3125 C155.72575774 8.349779 158.6785677 13.76868628 159.23828125 21.13671875 C159.26277344 22.30847656 159.28726563 23.48023438 159.3125 24.6875 C159.36857422 26.42580078 159.36857422 26.42580078 159.42578125 28.19921875 C158.27476559 38.47388147 151.36368818 48.09754599 146.5625 57.125 C146.16327332 57.87810455 145.76404663 58.63120911 145.35272217 59.40713501 C139.90907008 69.67238906 134.33096054 79.84505722 128.55517578 89.92797852 C124.32614832 97.33914511 120.36187564 104.87005766 116.44555664 112.45019531 C112.11586862 120.82049829 107.62328816 129.09417975 103.08984375 137.35546875 C100.8985712 141.34916001 98.72667755 145.35273546 96.56640625 149.36328125 C95.99204834 150.42877197 95.41769043 151.4942627 94.82592773 152.59204102 C93.72860933 154.62933304 92.63294523 156.66751737 91.53930664 158.70678711 C78.47421981 182.9354106 78.47421981 182.9354106 64.66015625 187.34375 C57.46120096 189.11970373 50.71246798 188.05684026 44 185 C35.66545776 179.13392869 31.16075847 171.91874143 26.6875 162.9375 C26.04799627 161.69382197 25.40618729 160.45132691 24.76220703 159.20996094 C23.4562681 156.68894266 22.15957297 154.16351429 20.86962891 151.63427734 C18.13277908 146.2884349 15.25266766 141.02097542 12.375 135.75 C11.30942142 133.78671575 10.24431573 131.82317476 9.1796875 129.859375 C8.65600586 128.89451172 8.13232422 127.92964844 7.59277344 126.93554688 C4.89235417 121.95856324 2.1964569 116.97913112 -0.5 112 C-1.58202075 110.00259848 -2.664052 108.00520264 -3.74609375 106.0078125 C-5.92666279 101.98224742 -8.10625571 97.95615591 -10.28515625 93.9296875 C-13.52054498 87.95155511 -16.75915845 81.97517795 -20 76 C-20.53044922 75.02160156 -21.06089844 74.04320313 -21.60742188 73.03515625 C-27.09448757 62.92068754 -32.59603511 52.82402562 -38.37890625 42.875 C-38.91386719 41.92625 -39.44882813 40.9775 -40 40 C-40.55816406 39.04996094 -41.11632812 38.09992188 -41.69140625 37.12109375 C-43.26517206 33.36754484 -43.4431143 30.06232296 -43.375 26.0625 C-43.38660156 25.38509766 -43.39820313 24.70769531 -43.41015625 24.00976562 C-43.36764363 16.61965592 -40.54180403 10.76931864 -36 5 C-25.78200644 -4.52131218 -12.26393253 -7.4958575 0 0 Z " fill="#FDB713" transform="translate(285,43)"/>
<path d="M0 0 C2.31903138 -0.03723102 4.63807202 -0.07389149 6.9571228 -0.1098938 C7.99094935 -0.1418966 9.02477591 -0.1738994 10.08993053 -0.20687199 C19.74260109 -0.31347285 27.78127665 2.37802013 34.82699585 9.13790894 C40.77294332 15.9803629 42.45080735 22.66807782 42.05355835 31.66915894 C40.52271602 43.18263697 33.39975896 52.44545624 27.10336304 61.87374878 C24.55836373 65.72406527 22.10657248 69.63239565 19.6512146 73.54025269 C18.6382709 75.14837419 17.62524978 76.75644693 16.6121521 78.36447144 C16.11038452 79.16159546 15.60861694 79.95871948 15.09164429 80.77999878 C13.6272185 83.10414432 12.15945591 85.42614057 10.6902771 87.74728394 C5.16858489 96.47254248 -0.32113281 105.21696022 -5.7862854 113.97775269 C-11.25846904 122.74751083 -16.77512275 131.48740159 -22.33682251 140.20065308 C-25.67916435 145.4375437 -28.99977897 150.68715648 -32.30044556 155.95040894 C-49.05126108 182.61648172 -49.05126108 182.61648172 -60.4112854 186.16525269 C-63.23715201 186.60834585 -65.99149759 186.68954283 -68.8487854 186.66525269 C-69.59869751 186.66170776 -70.34860962 186.65816284 -71.12124634 186.6545105 C-77.06493099 186.47565562 -80.95222985 185.19963628 -85.4112854 181.16525269 C-86.6487854 180.27773315 -86.6487854 180.27773315 -87.9112854 179.37228394 C-90.78514558 176.83520425 -92.03455283 174.55741896 -93.6612854 171.10275269 C-94.16144165 170.05990112 -94.6615979 169.01704956 -95.1769104 167.94259644 C-98.29056046 160.9368838 -98.35370745 154.90024127 -95.6612854 147.79025269 C-91.97258022 139.59197553 -86.91813943 132.16897739 -82.02407837 124.65304565 C-79.44892379 120.68077421 -76.93226211 116.67203446 -74.4112854 112.66525269 C-73.41158573 111.08172971 -72.41158519 109.49839664 -71.4112854 107.91525269 C-70.9162854 107.13150269 -70.4212854 106.34775269 -69.9112854 105.54025269 C-65.4112854 98.41525269 -65.4112854 98.41525269 -63.90908813 96.03683472 C-62.91633876 94.46494109 -61.92366212 92.89300153 -60.93106079 91.3210144 C-58.32074294 87.18725994 -55.70889701 83.05448108 -53.09487915 78.92306519 C-52.55153931 78.06390503 -52.00819946 77.20474487 -51.44839478 76.31954956 C-50.40979979 74.67732671 -49.37076292 73.03538321 -48.33120728 71.39376831 C-47.86134399 70.65062378 -47.39148071 69.90747925 -46.90737915 69.14181519 C-46.29140869 68.16849243 -46.29140869 68.16849243 -45.66299438 67.17550659 C-44.21810149 64.85499789 -42.81561345 62.51048671 -41.4112854 60.16525269 C-42.69421982 60.17413513 -43.97715424 60.18301758 -45.29896545 60.19216919 C-57.40749999 60.27336379 -69.51597907 60.33327046 -81.62472439 60.37250137 C-87.84951082 60.39334864 -94.07407693 60.42161458 -100.29873657 60.4670105 C-106.30933349 60.51056943 -112.31971889 60.53441131 -118.3304615 60.54476166 C-120.62012116 60.55213493 -122.90976964 60.56653316 -125.19933891 60.58817291 C-128.41403825 60.61733969 -131.62787087 60.62120304 -134.84268188 60.61935425 C-135.78280121 60.63373535 -136.72292053 60.64811646 -137.69152832 60.66293335 C-147.00294749 60.60523923 -153.90719422 57.32393095 -160.6847229 51.03244019 C-167.08636469 44.10939771 -167.83632895 36.89491253 -167.75112915 27.77853394 C-167.01130542 19.91259192 -163.02724763 13.91915897 -157.30581665 8.63400269 C-151.039036 3.77563253 -144.72014957 2.08261861 -136.85984802 1.96907043 C-135.75463806 1.95086746 -134.6494281 1.93266449 -133.51072693 1.91390991 C-131.7054377 1.89125061 -131.7054377 1.89125061 -129.86367798 1.86813354 C-127.95013016 1.83865379 -127.95013016 1.83865379 -125.9979248 1.80857849 C-122.49870491 1.75482741 -118.99942718 1.70685099 -115.50010896 1.66000056 C-111.81133186 1.60972938 -108.12262911 1.55447367 -104.43391418 1.49986267 C-98.21734712 1.40855536 -92.00073826 1.32077621 -85.78408813 1.23532104 C-78.66636774 1.13745979 -71.54872223 1.03520579 -64.43110353 0.93022245 C-56.78861422 0.81751769 -49.14608457 0.70776733 -41.50353789 0.59902883 C-39.33865004 0.56806603 -37.17376961 0.53662331 -35.00889015 0.50507927 C-27.05076534 0.38993692 -19.09276525 0.2938521 -11.13418961 0.21369553 C-7.42199712 0.16539207 -3.71151443 0.08499375 0 0 Z " fill="#F0137A" transform="translate(242.41128540039063,321.8347473144531)"/>
<path d="M0 0 C9.04717723 6.58588228 14.15423015 14.22885963 19.1875 24.125 C19.84006514 25.37960328 20.49430746 26.63333549 21.15014648 27.88623047 C22.46803826 30.40573124 23.77985048 32.92824423 25.08740234 35.453125 C27.64973294 40.384871 30.32131306 45.25573033 33 50.125 C37.34730781 58.0647729 41.65183079 66.02679777 45.9375 74 C50.24547153 82.01403791 54.57256568 90.0168417 58.9375 98 C64.57448283 108.31203937 70.15704042 118.65289548 75.71484375 129.0078125 C77.65102279 132.61483185 79.59783239 136.21525192 81.56640625 139.8046875 C81.94313477 140.4963501 82.31986328 141.1880127 82.70800781 141.90063477 C83.66189875 143.6508503 84.62166841 145.39785854 85.58203125 147.14453125 C89.13807265 154.63578849 88.88594775 162.92444392 86.3125 170.6875 C83.23504416 178.30581724 79.26457709 182.87331808 71.76953125 186.2734375 C64.44880714 189.17675239 54.67461587 189.37736793 47.0625 187.1640625 C36.19023987 181.53917792 31.08490002 170.26277889 25.75 159.875 C24.99835727 158.43227149 24.2454128 156.99022047 23.49121094 155.54882812 C22.35927974 153.38524151 21.22806104 151.2213242 20.10092163 149.05523682 C17.03484612 143.16372294 13.88578492 137.32084594 10.6875 131.5 C9.74462203 129.7800409 8.80191358 128.05998886 7.859375 126.33984375 C7.39080078 125.48503418 6.92222656 124.63022461 6.43945312 123.74951172 C3.03707569 117.52103729 -0.33003441 111.2732949 -3.70019531 105.02734375 C-5.89643658 100.96422822 -8.09694845 96.91561105 -10.4375 92.93359375 C-12.0625 90 -12.0625 90 -12.0625 88 C-12.7225 88 -13.3825 88 -14.0625 88 C-14.27261719 88.76441406 -14.48273438 89.52882813 -14.69921875 90.31640625 C-16.60516975 95.46629678 -19.23233298 100.13226588 -21.875 104.9375 C-22.4525 105.99654541 -23.03 107.05559082 -23.625 108.14672852 C-28.05153953 116.23584543 -32.60113315 124.25196717 -37.17382812 132.2590332 C-41.25704322 139.45699274 -45.09383009 146.76461527 -48.875 154.125 C-63.57763263 182.62575548 -63.57763263 182.62575548 -75.09350586 187.38916016 C-78.56532418 188.46622022 -81.95484035 188.43308397 -85.5625 188.375 C-86.28308594 188.38660156 -87.00367188 188.39820313 -87.74609375 188.41015625 C-95.05881018 188.37048509 -100.92708022 185.95086541 -106.3515625 180.98046875 C-112.18724271 174.22546905 -114.75631918 166.93197394 -114.56640625 158.08203125 C-113.21081457 149.79085423 -109.55339915 142.65810722 -105.625 135.3125 C-104.83210571 133.8119104 -104.83210571 133.8119104 -104.02319336 132.28100586 C-98.96937219 122.74754229 -93.79492343 113.27990661 -88.60546875 103.81982422 C-85.92980142 98.9299575 -83.27775914 94.02732113 -80.625 89.125 C-80.08568848 88.12879639 -79.54637695 87.13259277 -78.99072266 86.10620117 C-77.34768472 83.07096144 -75.70503093 80.03551413 -74.0625 77 C-58.47995263 48.20234273 -58.47995263 48.20234273 -53.51586914 39.17651367 C-50.94637796 34.49804852 -48.4328991 29.79988365 -45.99609375 25.05078125 C-35.19864859 4.21511312 -35.19864859 4.21511312 -24.79296875 -1.17578125 C-17.46894068 -3.3866109 -6.91229922 -3.59536404 0 0 Z " fill="#62C2AC" transform="translate(356.0625,376)"/>
<path d="M0 0 C5.59401306 4.54214736 8.98631128 9.65377627 10.953125 16.609375 C11.21875 19.828125 11.21875 19.828125 11.203125 23.109375 C11.21085937 24.73359375 11.21085937 24.73359375 11.21875 26.390625 C10.07102938 40.29829835 -1.94264246 54.26579604 -9.26171875 65.68359375 C-13.11065874 71.69313196 -16.89684053 77.74071665 -20.671875 83.796875 C-25.79064977 92.00466837 -30.93031588 100.19852803 -36.10400391 108.37182617 C-39.10145969 113.10746115 -42.08164767 117.85348961 -45.046875 122.609375 C-44.28213867 122.57908203 -43.51740234 122.54878906 -42.72949219 122.51757812 C-21.63139685 121.72647562 -0.51318717 121.38266411 20.59861565 121.22932625 C24.42953609 121.201256 28.2597002 121.16322267 32.09020996 121.09960938 C35.76737587 121.0392619 39.4436591 121.0093552 43.12129784 121.00066948 C45.13824104 120.98868983 47.15493914 120.9469034 49.17146301 120.90406799 C58.84919507 120.92536929 66.88259717 123.04343646 74.21754456 129.64845276 C81.09115874 136.90564867 82.55387591 143.2640506 82.29296875 153.10546875 C81.48371362 161.44916824 78.30964398 167.25664801 72.16796875 172.91796875 C64.89061168 178.4754566 57.10814915 179.69645164 48.12182617 179.81469727 C47.45939187 179.8245827 46.79695757 179.83446814 46.1144495 179.84465313 C43.9083667 179.87626657 41.70226451 179.90112624 39.49609375 179.92578125 C37.90899267 179.94670669 36.32189556 179.96793436 34.73480225 179.98944092 C29.53682143 180.05775963 24.33874507 180.1153204 19.140625 180.171875 C17.34774769 180.19191488 15.55487049 180.21196497 13.76199341 180.23202515 C1.46502534 180.36776071 -10.8320944 180.47972766 -23.12936401 180.58407593 C-26.04401796 180.60935023 -28.95865465 180.63610819 -31.87329102 180.66333008 C-43.16477503 180.76797889 -54.45601943 180.84843015 -65.74789429 180.89547729 C-69.31314077 180.91099938 -72.87813875 180.9358036 -76.44326782 180.96853638 C-80.64597712 181.00655972 -84.84832524 181.02496907 -89.05120087 181.02838898 C-90.58954163 181.03283153 -92.12788075 181.04405031 -93.66611481 181.06270599 C-104.66496516 181.18990345 -112.10434855 179.86431311 -120.5078125 172.32421875 C-125.55389626 166.70180563 -127.22677035 159.92333158 -127.421875 152.546875 C-127.47085937 151.29777344 -127.51984375 150.04867187 -127.5703125 148.76171875 C-127.08003526 140.3242221 -120.94039518 132.56654271 -116.484375 125.671875 C-115.42044449 124.00659246 -114.35664615 122.34122547 -113.29296875 120.67578125 C-112.75397949 119.83547363 -112.21499023 118.99516602 -111.65966797 118.12939453 C-109.10308906 114.13469161 -106.57589673 110.12155741 -104.046875 106.109375 C-103.04314038 104.51942289 -102.03923395 102.92957922 -101.03515625 101.33984375 C-100.53967285 100.55528809 -100.04418945 99.77073242 -99.53369141 98.96240234 C-98.07424216 96.65268611 -96.61348208 94.34380426 -95.15234375 92.03515625 C-89.590158 83.24331426 -84.05637037 74.43434364 -78.546875 65.609375 C-72.56732934 56.03149185 -66.55513473 46.47503726 -60.51611328 36.93457031 C-58.4548163 33.67239144 -56.40276374 30.40442378 -54.34985352 27.13696289 C-52.83614878 24.73421541 -51.31374798 22.33719687 -49.7890625 19.94140625 C-48.11536147 17.31138668 -46.4720441 14.66859438 -44.8671875 11.99609375 C-39.95098524 4.0689644 -34.19565938 -2.13615919 -24.984375 -4.828125 C-15.55692874 -6.17490304 -8.10777598 -5.50833635 0 0 Z " fill="#6457A4" transform="translate(529.046875,100.390625)"/>
<path d="M0 0 C8.55213511 4.66052134 13.55190519 12.77092343 18.4375 20.875 C19.75626392 23.02358881 21.07528164 25.17202187 22.39453125 27.3203125 C23.06307129 28.41633789 23.73161133 29.51236328 24.42041016 30.64160156 C27.61858025 35.86736969 30.87250864 41.05793417 34.125 46.25 C34.74866455 47.24789551 35.3723291 48.24579102 36.01489258 49.27392578 C41.79083886 58.51513659 47.60880213 67.72950275 53.4375 76.9375 C55.37576749 79.99951524 57.31335186 83.06196028 59.25 86.125 C59.73823242 86.8969873 60.22646484 87.66897461 60.72949219 88.46435547 C63.52422167 92.88919346 66.30414959 97.3228673 69.0703125 101.765625 C69.69478271 102.76835449 70.31925293 103.77108398 70.96264648 104.80419922 C72.23335393 106.84466369 73.50370142 108.88535236 74.77368164 110.92626953 C79.50448594 118.50506802 84.34614225 126.0057659 89.31420898 133.43139648 C95.59526658 142.9375609 97.54926482 150.33808701 96.4375 161.9375 C94.53589624 169.16563903 90.39725107 174.67045663 84.5 179.1875 C79.35961857 182.12486082 74.95452128 183.18809917 69.05273438 183.18041992 C67.1527066 183.18495178 67.1527066 183.18495178 65.21429443 183.1895752 C63.81994502 183.18262233 62.42559688 183.17541123 61.03125 183.16796875 C59.54787209 183.16723604 58.0644936 183.16729851 56.58111572 183.16809082 C52.54381451 183.16724336 48.506665 183.15300546 44.46940613 183.13534164 C41.93602583 183.12499398 39.40265659 183.11781339 36.8692627 183.11172485 C25.99091033 183.08525136 15.11281346 183.03432532 4.23461914 182.97070312 C0.32691209 182.94787981 -3.5807975 182.92712306 -7.48852539 182.90820312 C-19.35267366 182.85054679 -31.21647237 182.77440111 -43.08032227 182.67202759 C-46.89264423 182.639421 -50.70493171 182.613044 -54.51733398 182.59188843 C-59.02940052 182.56619259 -63.54111051 182.52586447 -68.05295563 182.47450256 C-69.71139563 182.45789707 -71.36989327 182.44618641 -73.02840424 182.43983459 C-83.94482003 182.39364369 -93.62408061 182.12709821 -102.5625 174.9375 C-110.7675892 166.3862045 -113.0230214 160.42584562 -112.8984375 148.515625 C-112.12442479 140.27148967 -108.10093349 134.75476339 -101.91796875 129.5078125 C-94.87095089 124.80980059 -89.5009302 123.35536099 -81.015625 123.48339844 C-79.99033188 123.48281433 -78.96503876 123.48223022 -77.90867615 123.48162842 C-74.54293143 123.48439984 -71.1780887 123.51544817 -67.8125 123.546875 C-65.46981286 123.55434072 -63.12711946 123.56003209 -60.78442383 123.56402588 C-54.6358295 123.57925601 -48.4876166 123.61851573 -42.33917236 123.6628418 C-36.05819864 123.70385079 -29.77716293 123.72204894 -23.49609375 123.7421875 C-11.18472879 123.78501212 1.12635382 123.85323205 13.4375 123.9375 C11.68003743 121.0563908 9.92164212 118.17585195 8.16308594 115.29541016 C7.66868011 114.48487686 7.17427429 113.67434357 6.66488647 112.83924866 C3.07111259 106.9542339 -0.58554855 101.11417139 -4.3125 95.3125 C-9.95608148 86.48525887 -15.53513633 77.61973487 -21.0703125 68.72412109 C-24.03966618 63.95584437 -27.02536697 59.20090802 -30.0703125 54.48046875 C-30.61864746 53.62670654 -31.16698242 52.77294434 -31.73193359 51.89331055 C-32.74678608 50.31647997 -33.76746128 48.74337321 -34.79541016 47.17504883 C-40.68749805 37.99831527 -42.99686186 29.97013334 -41.5625 18.9375 C-38.90426751 10.36872783 -34.31715836 4.44194503 -26.5625 -0.0625 C-18.95447232 -3.87945266 -7.67700622 -3.59047676 0 0 Z " fill="#62C2AC" transform="translate(187.5625,98.0625)"/>
<path d="M0 0 C2.8186505 0.62929902 5.43152987 0.60272711 8.32051086 0.58886719 C9.57512115 0.58562439 10.82973145 0.58238159 12.12236023 0.57904053 C12.79679546 0.57492912 13.4712307 0.57081772 14.16610336 0.56658173 C16.33164309 0.55341009 18.49713277 0.54625711 20.66270447 0.54058838 C23.80157069 0.53195059 26.94041647 0.52097832 30.07926941 0.50842285 C38.45026084 0.4768867 46.82129546 0.47600604 55.19233704 0.47558594 C56.0529241 0.47552299 56.91351116 0.47546005 57.80017662 0.4753952 C75.52874156 0.4762721 93.25643016 0.52102129 110.98417664 0.69873047 C114.07112496 0.72899511 117.15790913 0.74980204 120.24497986 0.76220703 C123.88566099 0.77721356 127.52568584 0.81120648 131.16607285 0.85951996 C133.11691856 0.88096399 135.06794299 0.88365891 137.01890564 0.88555908 C147.69652077 1.06332111 156.59626494 3.09491969 164.47749329 10.62011719 C171.12079192 17.83585426 172.7596902 23.82697319 172.53608704 33.55371094 C171.79886135 42.19468179 168.19797563 48.39305875 161.65327454 53.95605469 C154.34525059 58.52938815 148.21835126 60.07666576 139.63154602 59.9453125 C138.61586044 59.94589661 137.60017487 59.94648071 136.55371094 59.94708252 C133.22586335 59.94431534 129.8989327 59.91328743 126.57124329 59.88183594 C124.25240569 59.87436871 121.93356176 59.86867805 119.61471558 59.86468506 C113.5335373 59.84946684 107.45274566 59.81021755 101.37171936 59.76586914 C95.15768157 59.72483429 88.94358086 59.7066565 82.72944641 59.68652344 C70.55284494 59.64371987 58.37652948 59.57551458 46.20014954 59.49121094 C48.57090557 63.28699489 50.94212965 67.08248625 53.31343079 70.87792969 C53.97701599 71.94039917 54.6406012 73.00286865 55.32429504 74.09753418 C60.77122553 82.81496141 66.25127859 91.51099827 71.74848938 100.19677734 C74.72924793 104.90804019 77.70463565 109.6226976 80.68110657 114.33666992 C83.29121941 118.46999274 85.90279159 122.60238345 88.51655579 126.73339844 C89.05989563 127.59255859 89.60323547 128.45171875 90.16304016 129.33691406 C91.20163515 130.97913691 92.24067201 132.62108041 93.28022766 134.26269531 C103.81257671 150.92085505 103.81257671 150.92085505 102.20014954 161.49121094 C99.72683841 169.22646683 96.62096209 176.41115417 89.76264954 181.17871094 C89.2070636 181.57445312 88.65147766 181.97019531 88.07905579 182.37792969 C81.05665384 186.53881234 73.12468341 186.43436893 65.20014954 185.49121094 C52.84413476 182.16397036 46.17114005 170.40679037 39.95014954 160.11621094 C38.63678178 157.9792252 37.32297447 155.84250954 36.00874329 153.70605469 C35.36533997 152.65401855 34.72193665 151.60198242 34.05903625 150.51806641 C31.41554206 146.21362182 28.71832382 141.94424335 26.01264954 137.67871094 C25.03987457 136.14102562 24.06721754 134.60326568 23.09468079 133.06542969 C22.61853333 132.31310059 22.14238586 131.56077148 21.65180969 130.78564453 C18.66225106 126.06047264 15.67809338 121.33188714 12.69282532 116.60400391 C10.23210588 112.70726579 7.7702787 108.81123905 5.30561829 104.91699219 C-0.85494821 95.17915557 -6.98003547 85.41995282 -13.06791687 75.63647461 C-16.24611821 70.5383652 -19.45307678 65.46295645 -22.72563171 60.42480469 C-23.35743347 59.44809814 -23.98923523 58.4713916 -24.6401825 57.46508789 C-25.83041279 55.62940228 -27.02749744 53.79813378 -28.23295593 51.97241211 C-34.838043 41.76606886 -38.40056413 32.82945525 -36.79985046 20.49121094 C-34.3122271 12.06538986 -28.98663388 6.80799654 -21.74125671 2.17480469 C-15.29538917 -1.21962464 -7.05423229 -1.99411913 0 0 Z " fill="#F0137A" transform="translate(438.7998504638672,322.5087890625)"/>
<path d="M0 0 C5.59401306 4.54214736 8.98631128 9.65377627 10.953125 16.609375 C11.21875 19.828125 11.21875 19.828125 11.203125 23.109375 C11.21085937 24.73359375 11.21085937 24.73359375 11.21875 26.390625 C10.07102938 40.29829835 -1.94264246 54.26579604 -9.26171875 65.68359375 C-13.11065874 71.69313196 -16.89684053 77.74071665 -20.671875 83.796875 C-25.79064977 92.00466837 -30.93031588 100.19852803 -36.10400391 108.37182617 C-39.10147829 113.10749054 -42.08029801 117.85428409 -45.046875 122.609375 C-42.076875 122.609375 -39.106875 122.609375 -36.046875 122.609375 C-36.046875 122.939375 -36.046875 123.269375 -36.046875 123.609375 C-36.82868637 123.61746185 -37.61049774 123.62554871 -38.41600037 123.63388062 C-45.81555892 123.71210608 -53.21492816 123.79947893 -60.61425686 123.89690208 C-64.41752475 123.94666114 -68.22076758 123.99299135 -72.02416992 124.03125 C-75.70069427 124.06836248 -79.37699786 124.11478932 -83.05333138 124.16743851 C-84.44976965 124.18584559 -85.84625499 124.20100297 -87.24276543 124.21271896 C-96.96995608 124.29718008 -105.85050528 124.54652923 -114.609375 129.234375 C-115.45628906 129.68039063 -116.30320312 130.12640625 -117.17578125 130.5859375 C-118.10197266 131.09253906 -118.10197266 131.09253906 -119.046875 131.609375 C-117.77028594 128.18998028 -116.29774271 125.21452997 -114.31640625 122.15234375 C-113.76839355 121.29938721 -113.22038086 120.44643066 -112.65576172 119.56762695 C-112.0629541 118.65327881 -111.47014648 117.73893066 -110.859375 116.796875 C-109.58633376 114.81568592 -108.31423075 112.83389373 -107.04296875 110.8515625 C-106.38409668 109.82514648 -105.72522461 108.79873047 -105.04638672 107.74121094 C-101.80100847 102.6579738 -98.61109844 97.54046318 -95.421875 92.421875 C-88.52644404 81.36650779 -81.57725147 70.34609329 -74.60839844 59.33691406 C-73.14985564 57.03223893 -71.69195929 54.72715645 -70.234375 52.421875 C-69.74831787 51.65351318 -69.26226074 50.88515137 -68.76147461 50.09350586 C-65.27425603 44.57325296 -61.81833302 39.03406395 -58.37109375 33.48876953 C-55.84390128 29.43146077 -53.30099657 25.38414141 -50.75537109 21.33837891 C-49.22887706 18.90008934 -47.7237713 16.45003845 -46.22265625 13.99609375 C-40.8460375 5.36113683 -35.13832069 -1.81210153 -24.984375 -4.828125 C-15.55692874 -6.17490304 -8.10777598 -5.50833635 0 0 Z " fill="#63C1AC" transform="translate(529.046875,100.390625)"/>
<path d="M0 0 C9.64201312 6.82902214 14.69565998 16.97719913 20.125 27.1875 C21.27567669 29.3322271 22.42672613 31.47675426 23.578125 33.62109375 C24.43954102 35.22960205 24.43954102 35.22960205 25.31835938 36.87060547 C27.8119446 41.51096195 30.34388239 46.13004609 32.875 50.75 C38.288729 60.64865884 43.61699764 70.59236978 48.92529297 80.54785156 C49.52744629 81.67545898 50.12959961 82.80306641 50.75 83.96484375 C51.59111328 85.55401611 51.59111328 85.55401611 52.44921875 87.17529297 C53.73279757 89.51329783 55.10400248 91.71280741 56.5625 93.94140625 C58 97 58 97 57.27368164 99.83422852 C56.03161449 102.92142129 54.64524592 105.78700293 53.05859375 108.7109375 C52.47891846 109.7834375 51.89924316 110.8559375 51.30200195 111.9609375 C50.68671631 113.08757812 50.07143066 114.21421875 49.4375 115.375 C48.80996826 116.53515625 48.18243652 117.6953125 47.53588867 118.890625 C44.41258969 124.64759226 41.23797631 130.36645939 37.95117188 136.03149414 C31.78615298 146.68941595 27.8056765 156.62199644 31 169 C28.4408377 165.79680689 26.54056683 162.44333148 24.62890625 158.8203125 C24.15164848 157.91993759 24.15164848 157.91993759 23.66474915 157.00137329 C22.98263622 155.7138783 22.30201109 154.42559416 21.6227417 153.13659668 C19.8220266 149.72009974 18.00999639 146.30960862 16.19921875 142.8984375 C15.65705719 141.87611023 15.65705719 141.87611023 15.10394287 140.83312988 C12.06923473 135.11585345 8.98588144 129.42619984 5.875 123.75 C1.54903122 115.85155658 -2.73660931 107.93240261 -7 100 C-11.80780946 91.0568571 -16.64324078 82.12964426 -21.51367188 73.22045898 C-25.91319344 65.17012962 -30.28045033 57.1024887 -34.63696289 49.02880859 C-35.14864014 48.08215332 -35.66031738 47.13549805 -36.1875 46.16015625 C-36.66888428 45.26312988 -37.15026855 44.36610352 -37.64624023 43.44189453 C-38.81139709 41.34019951 -40.05812514 39.33422387 -41.34765625 37.30859375 C-43.28236045 33.43461157 -43.56320381 30.23337986 -43.4375 26 C-43.44813477 24.99066406 -43.44813477 24.99066406 -43.45898438 23.9609375 C-43.36686023 16.61935196 -40.51007392 10.72901281 -36 5 C-25.78200644 -4.52131218 -12.26393253 -7.4958575 0 0 Z " fill="#F0137A" transform="translate(285,43)"/>
<path d="M0 0 C8.55213511 4.66052134 13.55190519 12.77092343 18.4375 20.875 C19.75626392 23.02358881 21.07528164 25.17202187 22.39453125 27.3203125 C23.06307129 28.41633789 23.73161133 29.51236328 24.42041016 30.64160156 C27.61858025 35.86736969 30.87250864 41.05793417 34.125 46.25 C34.74866455 47.24789551 35.3723291 48.24579102 36.01489258 49.27392578 C41.79083886 58.51513659 47.60880213 67.72950275 53.4375 76.9375 C60.03198462 87.35526355 66.59905565 97.78912759 73.125 108.25 C78.49498522 116.85710883 83.91070618 125.43013174 89.4375 133.9375 C88.7775 134.2675 88.1175 134.5975 87.4375 134.9375 C86.756875 134.174375 86.07625 133.41125 85.375 132.625 C79.54901987 127.29484796 74.021037 126.49670074 66.4375 126.3125 C65.52613281 126.26569092 64.61476563 126.21888184 63.67578125 126.1706543 C57.86978666 125.91278562 52.14985028 125.97390831 46.35197449 126.29776001 C18.81732268 127.77055872 18.81732268 127.77055872 11.50634766 123.04150391 C6.80065005 118.06835654 4.2026769 112.17378983 1.68554688 105.875 C-0.2050044 101.42525178 -2.81902336 97.56726038 -5.5 93.5625 C-6.48290832 92.0162154 -7.46068371 90.46665739 -8.43359375 88.9140625 C-8.93487793 88.11774414 -9.43616211 87.32142578 -9.95263672 86.50097656 C-13.63734757 80.63360259 -17.30678421 74.75662526 -20.96948242 68.87548828 C-23.97553447 64.05322316 -26.99786549 59.24402238 -30.078125 54.46875 C-30.62533203 53.61667969 -31.17253906 52.76460937 -31.73632812 51.88671875 C-32.74952363 50.31231087 -33.76858534 48.74165438 -34.79492188 47.17578125 C-40.68725966 37.99877858 -42.99691482 29.97054068 -41.5625 18.9375 C-38.90426751 10.36872783 -34.31715836 4.44194503 -26.5625 -0.0625 C-18.95447232 -3.87945266 -7.67700622 -3.59047676 0 0 Z " fill="#6457A4" transform="translate(187.5625,98.0625)"/>
<path d="M0 0 C0.33 0 0.66 0 1 0 C1.01417969 0.72703125 1.02835937 1.4540625 1.04296875 2.203125 C1.89233931 20.10877467 13.14761279 36.49107106 22.296875 51.43359375 C22.81427246 52.28816162 23.33166992 53.14272949 23.86474609 54.02319336 C24.84946136 55.63812003 25.85169395 57.24253354 26.87353516 58.83422852 C27.31487793 59.55924561 27.7562207 60.2842627 28.2109375 61.03125 C28.60587402 61.65580078 29.00081055 62.28035156 29.40771484 62.92382812 C30.74770796 67.62098454 27.39271952 72.41207971 25.19921875 76.46484375 C24.64097412 77.5000415 24.08272949 78.53523926 23.50756836 79.60180664 C22.9069458 80.70258545 22.30632324 81.80336426 21.6875 82.9375 C21.06302979 84.09048584 20.43855957 85.24347168 19.79516602 86.43139648 C15.25093457 94.80303076 10.56529952 103.09123774 5.83789062 111.3605957 C1.7692132 118.52352461 -2.04863812 125.79804463 -5.8125 133.125 C-20.51504492 161.6257192 -20.51504492 161.6257192 -32.03100586 166.38916016 C-35.50282418 167.46622022 -38.89234035 167.43308397 -42.5 167.375 C-43.22058594 167.38660156 -43.94117188 167.39820313 -44.68359375 167.41015625 C-51.99631018 167.37048509 -57.86458022 164.95086541 -63.2890625 159.98046875 C-69.12474271 153.22546905 -71.69381918 145.93197394 -71.50390625 137.08203125 C-70.14831457 128.79085423 -66.49089915 121.65810722 -62.5625 114.3125 C-61.76960571 112.8119104 -61.76960571 112.8119104 -60.96069336 111.28100586 C-55.90687219 101.74754229 -50.73242343 92.27990661 -45.54296875 82.81982422 C-42.86730142 77.9299575 -40.21525914 73.02732113 -37.5625 68.125 C-37.02318848 67.12879639 -36.48387695 66.13259277 -35.92822266 65.10620117 C-34.28518472 62.07096144 -32.64253093 59.03551413 -31 56 C-27.2054885 48.98747252 -23.40938936 41.97581487 -19.60839844 34.96679688 C-18.5250377 32.96846662 -17.44236904 30.96976102 -16.36035156 28.97070312 C-14.76327501 26.02093232 -13.16322589 23.07279171 -11.5625 20.125 C-11.09062256 19.25214355 -10.61874512 18.37928711 -10.13256836 17.47998047 C-3.4751156 5.24026477 -3.4751156 5.24026477 0 0 Z " fill="#6458A4" transform="translate(313,397)"/>
<path d="M0 0 C-1.99023038 1.99023038 -3.15783215 2.56144613 -5.6875 3.625 C-14.1390065 7.79047786 -18.88376853 16.55405688 -23.6875 24.3125 C-24.28473877 25.26366699 -24.88197754 26.21483398 -25.49731445 27.19482422 C-26.72897101 29.15720178 -27.95773015 31.12140082 -29.18359375 33.08740234 C-31.48324827 36.774886 -33.79663602 40.45358102 -36.11450195 44.12963867 C-37.13883736 45.75461651 -38.1609273 47.38101269 -39.18041992 49.0090332 C-39.64037354 49.74081787 -40.10032715 50.47260254 -40.57421875 51.2265625 C-40.97213623 51.86158691 -41.37005371 52.49661133 -41.7800293 53.15087891 C-42.18261963 53.76108887 -42.58520996 54.37129883 -43 55 C-43.62140114 56.03031845 -43.62140114 56.03031845 -44.25535583 57.08145142 C-46 59 -46 59 -48.33578491 59.51898193 C-49.72103867 59.5323056 -49.72103867 59.5323056 -51.13427734 59.54589844 C-52.72026985 59.57543861 -52.72026985 59.57543861 -54.33830261 59.60557556 C-55.49252213 59.60682938 -56.64674164 59.60808319 -57.8359375 59.609375 C-59.04272659 59.62613785 -60.24951569 59.6429007 -61.49287415 59.66017151 C-64.7734273 59.70139511 -68.05349164 59.7249217 -71.33425522 59.73923111 C-74.73702855 59.75718734 -78.13959795 59.79436536 -81.54223633 59.82885742 C-87.05074465 59.88189248 -92.5591876 59.91977919 -98.06787109 59.94873047 C-104.19408195 59.98155056 -110.31910413 60.05234423 -116.44470215 60.1446228 C-120.56868826 60.20433483 -124.6927065 60.24638009 -128.81695557 60.28308105 C-130.71510027 60.3025343 -132.61319341 60.32806729 -134.51116943 60.35998535 C-153.15004944 60.65495035 -153.15004944 60.65495035 -160 56 C-160.82113281 55.44699219 -161.64226562 54.89398438 -162.48828125 54.32421875 C-168.6861256 48.76341193 -172.52592003 43.37742139 -173.2734375 34.8984375 C-173.56996963 24.61105354 -171.71012166 17.74357808 -164.6875 10.125 C-158.15711264 4.09257246 -151.14488863 1.92850708 -142.36108398 1.80381775 C-141.23708694 1.78561478 -140.1130899 1.7674118 -138.95503235 1.74865723 C-137.11910774 1.72599792 -137.11910774 1.72599792 -135.24609375 1.70288086 C-133.30122322 1.67340111 -133.30122322 1.67340111 -131.31706238 1.64332581 C-127.76499682 1.58961518 -124.21287442 1.54164277 -120.6607132 1.49474788 C-116.93115151 1.44458207 -113.20166562 1.38929503 -109.47216797 1.33460999 C-103.20104945 1.24337497 -96.92989108 1.15553544 -90.65869141 1.07006836 C-81.85374008 0.95006076 -73.04888837 0.82369713 -64.24404335 0.69616115 C-58.11141794 0.6075748 -51.97877042 0.5205353 -45.84611893 0.43377614 C-44.36870897 0.41286842 -42.8912996 0.39191877 -41.41389084 0.37092662 C-36.53896742 0.30172272 -31.66402241 0.23430937 -26.7890625 0.16772461 C-25.58130661 0.15059418 -24.37355072 0.13346375 -23.12919617 0.11581421 C-15.41898929 0.01236763 -7.71086854 -0.0192743 0 0 Z " fill="#FDB713" transform="translate(248,322)"/>
<path d="M0 0 C24.66678701 -0.07119098 49.33321175 -0.07454906 74 0 C74.85818832 0.00254036 75.71637665 0.00508072 76.60057068 0.00769806 C87.33012481 0.04090579 98.05895842 0.10359137 108.78805542 0.20852661 C111.87329307 0.23806179 114.95837821 0.25841929 118.04373169 0.27072144 C121.6846969 0.28571555 125.32500228 0.31980642 128.96567154 0.36824608 C130.916621 0.38974907 132.86775012 0.39245537 134.81881714 0.3943634 C145.49640416 0.5720826 154.39614518 2.60373718 162.27734375 10.12890625 C168.92064239 17.34464332 170.55954067 23.33576225 170.3359375 33.0625 C169.59871181 41.70347086 165.9978261 47.90184782 159.453125 53.46484375 C158.64359375 53.97144531 157.8340625 54.47804688 157 55 C156.46793945 55.35231689 155.93587891 55.70463379 155.38769531 56.06762695 C147.3844654 60.52778083 138.11283483 59.47102689 129.25 59.3125 C127.35719064 59.28851033 125.46436745 59.26559092 123.5715332 59.24365234 C120.49026521 59.2065964 117.40918227 59.1664614 114.32807922 59.11743164 C107.55953487 59.01566645 100.79574198 59.00389837 94.02694511 59.06350231 C88.47618869 59.1121192 82.92600897 59.12664865 77.37504768 59.11894703 C73.94617395 59.1157793 70.51919457 59.12962661 67.09069824 59.18301392 C63.21992188 59.24215587 59.35164908 59.22143335 55.48046875 59.1953125 C54.32183823 59.2250264 53.1632077 59.2547403 51.96946716 59.28535461 C44.19765624 59.14692873 44.19765624 59.14692873 40.80101013 55.89414978 C38.98667103 53.33905092 37.46593866 50.76730485 36 48 C35.00359497 46.46533081 35.00359497 46.46533081 33.98706055 44.8996582 C33.19489136 43.61321411 33.19489136 43.61321411 32.38671875 42.30078125 C31.7834375 41.32608887 31.18015625 40.35139648 30.55859375 39.34716797 C29.94113281 38.34572754 29.32367188 37.34428711 28.6875 36.3125 C18.3528997 17.94992409 18.3528997 17.94992409 4 3 C2.66495824 2.00228196 1.33125578 1.00276409 0 0 Z " fill="#FDB713" transform="translate(441,323)"/>
</svg>
